<svg version="1.1" id="Layer_1" xmlns="http://www.w3.org/2000/svg" xmlns:xlink="http://www.w3.org/1999/xlink" x="0px" y="0px"
	 width="100%" viewBox="0 0 2000 2235" enable-background="new 0 0 2000 2235" xml:space="preserve">
<path fill="#F0F0F0" opacity="1.000000" stroke="none" 
	d="
M1082.000000,2238.000000 
	C1078.571289,2238.000000 1075.142578,2238.000000 1070.425049,2237.419922 
	C1054.160645,2233.925781 1039.292236,2230.115723 1024.184326,2228.306152 
	C1001.327393,2225.568604 978.334167,2226.979004 955.454895,2229.148193 
	C932.318726,2231.341797 909.209595,2233.820068 885.278687,2236.097656 
	C880.979187,2236.681152 877.489563,2237.340576 874.000000,2238.000000 
	C851.958191,2238.000000 829.916443,2238.000000 807.209106,2237.191406 
	C805.836426,2228.816895 804.617371,2221.453369 798.971985,2215.714600 
	C792.519592,2218.351562 791.300171,2224.348877 788.426758,2229.054688 
	C783.382568,2237.315430 777.434937,2239.011230 769.268127,2233.802246 
	C764.819031,2230.964600 760.900574,2227.284668 756.800171,2223.915039 
	C754.232422,2221.804688 751.906982,2219.380615 749.237976,2217.416504 
	C738.812317,2209.743896 733.272888,2210.690430 726.109253,2221.177490 
	C725.546570,2222.001221 725.062256,2222.877930 724.512451,2223.710693 
	C716.492981,2235.857422 706.322571,2238.509033 693.855713,2231.215088 
	C689.000793,2228.374512 684.599854,2224.719971 680.152771,2221.231689 
	C675.445496,2217.539307 671.083618,2213.397461 666.300415,2209.812988 
	C652.207764,2199.252197 641.454651,2201.065186 631.943359,2215.642822 
	C629.416016,2219.516113 627.573669,2223.836670 625.419006,2227.952881 
	C624.425781,2229.850342 623.438110,2231.750488 622.447998,2233.649170 
	C614.090027,2205.692139 616.542664,2176.208008 605.971802,2148.875977 
	C602.631165,2155.981689 600.451843,2163.184082 598.102234,2170.330811 
	C596.866211,2174.090332 596.406128,2179.446777 593.732178,2181.141113 
	C585.613953,2186.284424 586.493958,2193.911621 586.569885,2201.257812 
	C586.696594,2213.508789 587.488220,2225.752930 588.000000,2238.000000 
	C587.111084,2238.000000 586.222229,2238.000000 584.438721,2237.286377 
	C580.958313,2225.951904 577.426575,2215.458252 575.978760,2204.684326 
	C572.710754,2180.365479 570.664490,2155.884766 567.699463,2131.521240 
	C566.806030,2124.180176 566.942505,2116.260254 560.678894,2109.014160 
	C558.776306,2113.366455 557.050171,2116.845459 555.716003,2120.469238 
	C553.260620,2127.137695 550.615540,2133.908936 558.943298,2138.836426 
	C559.825012,2139.357910 560.080383,2141.178711 560.350891,2142.455078 
	C562.939270,2154.669189 562.268250,2166.620361 557.992981,2178.643799 
	C555.053833,2178.212646 552.875977,2177.893066 549.262268,2177.362793 
	C548.717346,2184.370605 548.148254,2191.178467 547.668396,2197.992188 
	C547.063110,2206.586426 546.871582,2215.227539 545.834045,2223.767090 
	C545.247437,2228.595459 543.322205,2233.260986 542.000000,2238.000000 
	C539.222229,2238.000000 536.444397,2238.000000 533.074585,2237.263184 
	C526.560120,2224.595215 524.118042,2210.906250 515.300049,2200.270996 
	C512.195557,2202.458740 509.924042,2204.059326 506.690979,2206.337402 
	C503.894165,2189.312744 507.634308,2173.162842 505.317352,2155.247559 
	C494.071564,2165.956055 491.756195,2179.359619 484.931152,2189.650879 
	C484.026672,2189.587158 483.598816,2189.689453 483.388611,2189.520996 
	C482.098724,2188.485107 480.881897,2187.358887 479.597290,2186.315918 
	C457.910461,2168.707031 433.898193,2155.538818 406.914795,2147.906494 
	C381.429108,2140.697510 355.368713,2138.241211 329.016968,2138.135498 
	C305.022888,2138.039551 281.027466,2138.225830 257.033875,2138.081055 
	C237.053894,2137.960449 217.215973,2136.083740 197.645981,2131.958496 
	C159.569214,2123.932373 126.561905,2106.117676 98.325714,2079.531982 
	C67.442574,2050.454102 44.472210,2015.541138 23.948841,1978.709106 
	C18.505230,1968.939819 17.392223,1959.482910 19.066488,1949.082275 
	C21.810184,1932.037476 24.860703,1915.038208 27.326433,1897.954102 
	C28.956057,1886.662964 28.744884,1875.734375 22.411757,1865.161743 
	C19.373142,1860.088989 18.483379,1853.069214 18.501085,1846.936523 
	C18.591404,1815.654297 17.793530,1784.446045 14.286499,1753.329102 
	C12.169180,1734.542725 9.543728,1715.750977 8.760571,1696.894531 
	C7.976972,1678.027588 9.126466,1659.075195 9.582119,1640.164062 
	C9.780286,1631.939453 12.221056,1623.292847 10.433092,1615.582397 
	C4.225382,1588.811890 5.023423,1562.314941 9.337729,1535.454346 
	C14.012530,1506.349243 20.311441,1477.301025 16.396465,1447.450317 
	C15.882133,1443.528687 15.997328,1439.404541 16.569094,1435.483276 
	C18.222504,1424.143799 25.766899,1418.792480 36.773132,1421.482910 
	C41.422897,1422.619385 44.133888,1421.121216 45.318756,1417.199341 
	C46.746151,1412.474854 47.701950,1407.533569 48.206829,1402.618774 
	C49.663521,1388.438721 49.989998,1374.098389 52.207611,1360.049561 
	C57.504089,1326.495728 70.190125,1297.447876 103.202209,1281.603760 
	C107.561012,1279.511719 111.256737,1275.726929 114.704796,1272.185913 
	C116.324348,1270.522705 117.633141,1267.457031 117.370720,1265.228516 
	C114.188835,1238.207031 110.145920,1211.277832 107.415283,1184.214722 
	C104.452713,1154.853027 101.856934,1125.409546 100.580902,1095.937622 
	C99.676498,1075.049316 100.636131,1054.020020 101.854813,1033.117310 
	C103.050774,1012.604187 105.669075,992.175598 107.569733,971.701233 
	C108.176849,965.161255 110.047585,958.213806 108.567886,952.126709 
	C106.296318,942.782227 101.323471,934.309021 92.588821,928.788818 
	C82.479500,922.399841 76.861610,912.781677 74.037483,901.417969 
	C72.437492,894.979980 71.068901,888.481079 69.737656,881.980652 
	C68.566513,876.262024 67.592255,870.502991 66.529961,864.755981 
	C60.437500,865.931458 62.020386,875.017639 53.767166,873.416626 
	C53.310295,869.590515 52.565350,865.451172 52.361099,861.285400 
	C51.368225,841.035278 51.522091,820.673828 49.426891,800.543640 
	C43.858753,747.046082 34.062843,694.154907 25.062853,641.156189 
	C18.061670,599.927979 10.997365,558.711792 7.482226,516.970215 
	C6.661874,507.228668 3.879597,497.652344 2.000001,488.000000 
	C2.000000,453.291534 2.000000,418.583099 2.784817,383.016296 
	C4.350268,380.071564 5.471294,378.046356 5.859014,375.889343 
	C9.837001,353.758179 16.706587,332.658661 28.382471,313.337097 
	C44.640800,286.432343 68.365669,268.284424 96.860161,255.994507 
	C111.813393,249.545059 127.241905,244.128067 141.897385,237.083191 
	C151.057236,232.680023 159.228317,226.189621 167.740845,220.483307 
	C171.813400,217.753296 175.318222,214.008774 179.641678,211.846405 
	C225.825348,188.747879 273.828278,170.235504 323.099670,154.822113 
	C394.738983,132.411453 468.102661,118.496155 542.564575,110.310898 
	C576.204163,106.613052 610.025879,104.399559 643.813049,102.277313 
	C666.370605,100.860435 689.012329,100.270531 711.617432,100.243813 
	C744.900513,100.204468 778.186707,100.873810 811.467407,101.474953 
	C837.408264,101.943520 863.344543,102.701027 889.279175,103.456802 
	C908.219849,104.008751 927.155334,104.744438 946.091614,105.439445 
	C963.363037,106.073334 980.628601,106.890747 997.903442,107.400345 
	C1031.487305,108.391029 1065.071167,109.555885 1098.663818,110.024216 
	C1130.653320,110.470200 1162.653809,110.134270 1194.649536,110.097649 
	C1197.637329,110.094223 1200.692505,110.115631 1203.602417,109.544533 
	C1245.676392,101.287117 1287.807129,93.294640 1329.772949,84.515213 
	C1399.703979,69.885277 1469.360229,53.895489 1540.103027,43.422718 
	C1584.496704,36.850708 1628.984131,31.594948 1673.963867,31.229723 
	C1681.404541,31.169306 1689.014526,28.988688 1696.208252,26.717566 
	C1707.927979,23.017612 1719.222168,17.957161 1730.964966,14.345928 
	C1745.835938,9.772690 1760.975952,6.075181 1776.000000,2.000005 
	C1790.708496,2.000000 1805.416992,2.000000 1821.526367,2.577189 
	C1830.812134,5.700158 1838.967529,7.622885 1846.532227,10.906415 
	C1871.077881,21.560602 1889.470947,39.792736 1904.822510,61.059410 
	C1936.942627,105.555977 1958.039185,155.381226 1971.715576,208.139359 
	C1984.479248,257.376007 1989.190796,308.041473 1993.555664,358.600067 
	C1996.293823,390.317383 1997.840820,422.139038 1999.787964,453.922089 
	C2000.235229,461.223816 2000.130981,468.559326 2000.167847,476.814575 
	C2000.043213,485.832947 1999.902344,493.919373 2000.110474,501.996796 
	C2000.162354,504.012787 2001.339844,505.999725 2002.000000,508.000000 
	C2002.000000,696.041809 2002.000000,884.083557 2001.296631,1073.545898 
	C2000.473267,1099.345703 2000.353394,1123.724976 2000.134277,1149.030273 
	C1999.459717,1178.233398 1998.982422,1206.512817 1998.274780,1234.786621 
	C1997.783813,1254.397461 1996.971069,1274.000244 1996.310425,1293.606812 
	C1995.638672,1313.543701 1994.863770,1333.477905 1994.337524,1353.418579 
	C1993.565308,1382.682251 1992.634644,1411.947998 1992.379395,1441.218018 
	C1991.911621,1494.867676 1992.002441,1548.521973 1991.640747,1602.172852 
	C1991.382446,1640.454712 1990.525391,1678.733032 1990.374634,1717.014771 
	C1990.218628,1756.597656 1989.156738,1796.130981 1986.345459,1835.619873 
	C1984.719116,1858.463989 1984.229004,1881.417236 1981.803467,1904.169556 
	C1977.652710,1943.105469 1973.399292,1982.085083 1967.204468,2020.728149 
	C1963.485840,2043.924805 1956.017578,2066.521729 1950.202148,2089.379639 
	C1949.201416,2093.313232 1947.554077,2096.453369 1943.562866,2098.714844 
	C1896.091064,2125.613281 1848.850098,2152.920898 1801.275757,2179.635254 
	C1791.201416,2185.292480 1780.409058,2190.549072 1769.282471,2193.279541 
	C1742.506226,2199.850342 1715.443970,2205.416992 1688.300293,2210.293457 
	C1642.073730,2218.597656 1595.257812,2221.509033 1548.397827,2221.889404 
	C1503.467407,2222.254395 1458.520142,2220.879883 1413.583862,2220.076172 
	C1388.305664,2219.624512 1363.035645,2218.285156 1337.760132,2218.237305 
	C1303.803345,2218.173340 1269.845947,2219.093018 1235.886963,2219.364502 
	C1200.581909,2219.646729 1165.508789,2222.775391 1130.668701,2228.188232 
	C1114.332153,2230.726562 1098.216064,2234.685059 1082.000000,2238.000000 
M1324.615234,326.357819 
	C1296.762817,307.895233 1267.378906,292.348633 1236.364746,279.881561 
	C1164.923096,251.163513 1090.149414,240.131058 1013.724487,238.461426 
	C959.581665,237.278610 905.905762,242.016174 853.013733,254.046143 
	C804.711426,265.032196 758.161194,281.064728 715.260925,306.082520 
	C630.182739,355.696808 573.621704,429.077576 540.185059,520.781433 
	C515.714966,587.893494 506.679718,657.965820 506.496124,728.889221 
	C505.833466,984.883118 506.122864,1240.879639 506.224152,1496.875244 
	C506.242218,1542.578247 509.910126,1588.038208 517.966675,1633.079590 
	C528.377563,1691.283691 546.527466,1746.636719 577.852539,1797.254639 
	C617.564697,1861.425415 669.959229,1911.782715 738.247559,1944.720459 
	C811.355103,1979.982544 889.062378,1996.764160 969.777344,1999.688477 
	C999.023315,2000.748169 1028.418701,1999.596191 1057.673340,1998.066772 
	C1104.070801,1995.641357 1149.471069,1986.873901 1193.854248,1973.139771 
	C1240.917969,1958.575806 1285.669312,1938.992065 1325.299194,1909.254150 
	C1402.517212,1851.310913 1452.399292,1774.778687 1477.785400,1682.043335 
	C1493.354980,1625.167603 1500.127686,1567.013428 1500.279175,1508.151733 
	C1500.601562,1382.821533 1500.482544,1257.489990 1500.518311,1132.159058 
	C1500.519409,1128.162964 1500.420044,1124.149780 1500.052734,1120.173584 
	C1497.626587,1093.911011 1479.930420,1074.152100 1454.063477,1069.319458 
	C1447.903198,1068.168457 1441.479858,1068.086792 1435.177368,1068.083862 
	C1299.512939,1068.018555 1163.848511,1068.033691 1028.184082,1068.038940 
	C1024.851196,1068.039062 1021.502869,1067.907959 1018.188049,1068.170288 
	C1002.105835,1069.443970 988.832092,1075.816040 979.030823,1089.117676 
	C957.679626,1118.093994 957.430115,1153.884888 978.737183,1182.989868 
	C988.622253,1196.492798 1001.976501,1203.594482 1018.734924,1204.124512 
	C1023.397583,1204.271973 1028.067017,1204.231079 1032.733276,1204.231323 
	C1131.731689,1204.236572 1230.729980,1204.235474 1329.728394,1204.235474 
	C1333.640625,1204.235474 1337.552856,1204.235474 1342.081909,1204.235474 
	C1342.356323,1208.213135 1342.731567,1211.119019 1342.731812,1214.024780 
	C1342.738770,1308.356445 1342.733521,1402.688110 1342.674683,1497.019775 
	C1342.648071,1539.812988 1338.467529,1582.150269 1328.100342,1623.751953 
	C1317.097168,1667.905273 1299.614502,1709.070312 1270.466431,1744.496704 
	C1226.820190,1797.543701 1169.905396,1828.615723 1103.692261,1843.947632 
	C1061.822876,1853.642578 1019.326050,1855.649170 976.566589,1854.041504 
	C939.785400,1852.658813 903.685913,1846.987183 868.645508,1835.530518 
	C813.020081,1817.343384 766.171875,1786.331543 730.622742,1739.376343 
	C704.024597,1704.244141 688.030273,1664.231201 677.969604,1621.646973 
	C667.494995,1577.310791 663.970032,1532.255981 663.978455,1486.812256 
	C664.023254,1244.816284 664.027527,1002.820251 663.960327,760.824219 
	C663.952454,732.483643 664.713501,704.219482 667.712036,676.002808 
	C671.601074,639.407288 679.027893,603.666016 691.946533,569.158813 
	C710.892700,518.551331 741.216858,476.498749 785.357422,444.739777 
	C836.698730,407.799988 895.038818,391.480255 957.094971,386.094849 
	C985.357178,383.642212 1013.631287,383.663483 1041.963623,385.708710 
	C1071.952148,387.873505 1101.565796,392.060242 1130.481934,400.292206 
	C1218.077881,425.229401 1280.253174,478.967865 1314.980347,563.711853 
	C1330.123291,600.664795 1338.724487,639.212891 1343.711182,678.679626 
	C1346.188721,698.287292 1355.854492,712.837402 1373.542847,722.012451 
	C1396.423218,733.880432 1420.586182,736.095276 1445.431519,731.028381 
	C1475.703125,724.854858 1494.538574,707.058105 1499.049072,675.683289 
	C1499.569580,672.063538 1500.223755,668.394897 1500.131104,664.766418 
	C1499.638550,645.466919 1499.750244,626.103455 1498.124634,606.891418 
	C1494.494995,563.998474 1482.909790,523.126526 1464.200439,484.342743 
	C1432.716064,419.077240 1385.605347,367.530426 1324.615234,326.357819 
z"/>
<path fill="#4C6971" opacity="1.000000" stroke="none" 
	d="
M1775.062744,2.000005 
	C1760.975952,6.075181 1745.835938,9.772690 1730.964966,14.345928 
	C1719.222168,17.957161 1707.927979,23.017612 1696.208252,26.717566 
	C1689.014526,28.988688 1681.404541,31.169306 1673.963867,31.229723 
	C1628.984131,31.594948 1584.496704,36.850708 1540.103027,43.422718 
	C1469.360229,53.895489 1399.703979,69.885277 1329.772949,84.515213 
	C1287.807129,93.294640 1245.676392,101.287117 1203.602417,109.544533 
	C1200.692505,110.115631 1197.637329,110.094223 1194.649536,110.097649 
	C1162.653809,110.134270 1130.653320,110.470200 1098.663818,110.024216 
	C1065.071167,109.555885 1031.487305,108.391029 997.903442,107.400345 
	C980.628601,106.890747 963.363037,106.073334 946.091614,105.439445 
	C927.155334,104.744438 908.219849,104.008751 889.279175,103.456802 
	C863.344543,102.701027 837.408264,101.943520 811.467407,101.474953 
	C778.186707,100.873810 744.900513,100.204468 711.617432,100.243813 
	C689.012329,100.270531 666.370605,100.860435 643.813049,102.277313 
	C610.025879,104.399559 576.204163,106.613052 542.564575,110.310898 
	C468.102661,118.496155 394.738983,132.411453 323.099670,154.822113 
	C273.828278,170.235504 225.825348,188.747879 179.641678,211.846405 
	C175.318222,214.008774 171.813400,217.753296 167.740845,220.483307 
	C159.228317,226.189621 151.057236,232.680023 141.897385,237.083191 
	C127.241905,244.128067 111.813393,249.545059 96.860161,255.994507 
	C68.365669,268.284424 44.640800,286.432343 28.382471,313.337097 
	C16.706587,332.658661 9.837001,353.758179 5.859014,375.889343 
	C5.471294,378.046356 4.350268,380.071564 2.784817,382.078979 
	C2.000000,255.384781 2.000000,128.769577 2.000000,2.000000 
	C592.708435,2.000000 1183.416870,2.000000 1775.062744,2.000005 
z"/>
<path fill="#4D6A71" opacity="1.000000" stroke="none" 
	d="
M2.000001,488.937317 
	C3.879597,497.652344 6.661874,507.228668 7.482226,516.970215 
	C10.997365,558.711792 18.061670,599.927979 25.062853,641.156189 
	C34.062843,694.154907 43.858753,747.046082 49.426891,800.543640 
	C51.522091,820.673828 51.368225,841.035278 52.361099,861.285400 
	C52.565350,865.451172 53.310295,869.590515 53.767166,873.416626 
	C62.020386,875.017639 60.437500,865.931458 66.529961,864.755981 
	C67.592255,870.502991 68.566513,876.262024 69.737656,881.980652 
	C71.068901,888.481079 72.437492,894.979980 74.037483,901.417969 
	C76.861610,912.781677 82.479500,922.399841 92.588821,928.788818 
	C101.323471,934.309021 106.296318,942.782227 108.567886,952.126709 
	C110.047585,958.213806 108.176849,965.161255 107.569733,971.701233 
	C105.669075,992.175598 103.050774,1012.604187 101.854813,1033.117310 
	C100.636131,1054.020020 99.676498,1075.049316 100.580902,1095.937622 
	C101.856934,1125.409546 104.452713,1154.853027 107.415283,1184.214722 
	C110.145920,1211.277832 114.188835,1238.207031 117.370720,1265.228516 
	C117.633141,1267.457031 116.324348,1270.522705 114.704796,1272.185913 
	C111.256737,1275.726929 107.561012,1279.511719 103.202209,1281.603760 
	C70.190125,1297.447876 57.504089,1326.495728 52.207611,1360.049561 
	C49.989998,1374.098389 49.663521,1388.438721 48.206829,1402.618774 
	C47.701950,1407.533569 46.746151,1412.474854 45.318756,1417.199341 
	C44.133888,1421.121216 41.422897,1422.619385 36.773132,1421.482910 
	C25.766899,1418.792480 18.222504,1424.143799 16.569094,1435.483276 
	C15.997328,1439.404541 15.882133,1443.528687 16.396465,1447.450317 
	C20.311441,1477.301025 14.012530,1506.349243 9.337729,1535.454346 
	C5.023423,1562.314941 4.225382,1588.811890 10.433092,1615.582397 
	C12.221056,1623.292847 9.780286,1631.939453 9.582119,1640.164062 
	C9.126466,1659.075195 7.976972,1678.027588 8.760571,1696.894531 
	C9.543728,1715.750977 12.169180,1734.542725 14.286499,1753.329102 
	C17.793530,1784.446045 18.591404,1815.654297 18.501085,1846.936523 
	C18.483379,1853.069214 19.373142,1860.088989 22.411757,1865.161743 
	C28.744884,1875.734375 28.956057,1886.662964 27.326433,1897.954102 
	C24.860703,1915.038208 21.810184,1932.037476 19.066488,1949.082275 
	C17.392223,1959.482910 18.505230,1968.939819 23.948841,1978.709106 
	C44.472210,2015.541138 67.442574,2050.454102 98.325714,2079.531982 
	C126.561905,2106.117676 159.569214,2123.932373 197.645981,2131.958496 
	C217.215973,2136.083740 237.053894,2137.960449 257.033875,2138.081055 
	C281.027466,2138.225830 305.022888,2138.039551 329.016968,2138.135498 
	C355.368713,2138.241211 381.429108,2140.697510 406.914795,2147.906494 
	C433.898193,2155.538818 457.910461,2168.707031 479.597290,2186.315918 
	C480.881897,2187.358887 482.098724,2188.485107 483.388611,2189.520996 
	C483.598816,2189.689453 484.026672,2189.587158 484.931152,2189.650879 
	C491.756195,2179.359619 494.071564,2165.956055 505.317352,2155.247559 
	C507.634308,2173.162842 503.894165,2189.312744 506.690979,2206.337402 
	C509.924042,2204.059326 512.195557,2202.458740 515.300049,2200.270996 
	C524.118042,2210.906250 526.560120,2224.595215 532.241211,2237.263184 
	C355.401123,2238.000000 178.802246,2238.000000 2.000000,2238.000000 
	C2.000000,1655.291504 2.000000,1072.583130 2.000001,488.937317 
z"/>
<path fill="#4E6A72" opacity="1.000000" stroke="none" 
	d="
M1082.937256,2238.000000 
	C1098.216064,2234.685059 1114.332153,2230.726562 1130.668701,2228.188232 
	C1165.508789,2222.775391 1200.581909,2219.646729 1235.886963,2219.364502 
	C1269.845947,2219.093018 1303.803345,2218.173340 1337.760132,2218.237305 
	C1363.035645,2218.285156 1388.305664,2219.624512 1413.583862,2220.076172 
	C1458.520142,2220.879883 1503.467407,2222.254395 1548.397827,2221.889404 
	C1595.257812,2221.509033 1642.073730,2218.597656 1688.300293,2210.293457 
	C1715.443970,2205.416992 1742.506226,2199.850342 1769.282471,2193.279541 
	C1780.409058,2190.549072 1791.201416,2185.292480 1801.275757,2179.635254 
	C1848.850098,2152.920898 1896.091064,2125.613281 1943.562866,2098.714844 
	C1947.554077,2096.453369 1949.201416,2093.313232 1950.202148,2089.379639 
	C1956.017578,2066.521729 1963.485840,2043.924805 1967.204468,2020.728149 
	C1973.399292,1982.085083 1977.652710,1943.105469 1981.803467,1904.169556 
	C1984.229004,1881.417236 1984.719116,1858.463989 1986.345459,1835.619873 
	C1989.156738,1796.130981 1990.218628,1756.597656 1990.374634,1717.014771 
	C1990.525391,1678.733032 1991.382446,1640.454712 1991.640747,1602.172852 
	C1992.002441,1548.521973 1991.911621,1494.867676 1992.379395,1441.218018 
	C1992.634644,1411.947998 1993.565308,1382.682251 1994.337524,1353.418579 
	C1994.863770,1333.477905 1995.638672,1313.543701 1996.310425,1293.606812 
	C1996.971069,1274.000244 1997.783813,1254.397461 1998.274780,1234.786621 
	C1998.982422,1206.512817 1999.459717,1178.233398 2000.572876,1148.951294 
	C2001.110474,1147.946289 2002.000000,1148.000000 2002.000000,1148.000000 
	C2002.000000,1511.175171 2002.000000,1874.350220 2002.000000,2238.000000 
	C1695.958374,2238.000000 1389.916504,2238.000000 1082.937256,2238.000000 
z"/>
<path fill="#4D6A72" opacity="1.000000" stroke="none" 
	d="
M2000.280518,475.879303 
	C2000.130981,468.559326 2000.235229,461.223816 1999.787964,453.922089 
	C1997.840820,422.139038 1996.293823,390.317383 1993.555664,358.600067 
	C1989.190796,308.041473 1984.479248,257.376007 1971.715576,208.139359 
	C1958.039185,155.381226 1936.942627,105.555977 1904.822510,61.059410 
	C1889.470947,39.792736 1871.077881,21.560602 1846.532227,10.906415 
	C1838.967529,7.622885 1830.812134,5.700158 1822.463623,2.577189 
	C1881.919678,2.000000 1941.839233,2.000000 2002.000000,2.000000 
	C2002.000000,159.375046 2002.000000,316.750214 2001.567383,475.072083 
	C2001.134644,476.018829 2000.280518,475.879303 2000.280518,475.879303 
z"/>
<path fill="#516B73" opacity="1.000000" stroke="none" 
	d="
M588.937317,2238.000000 
	C587.488220,2225.752930 586.696594,2213.508789 586.569885,2201.257812 
	C586.493958,2193.911621 585.613953,2186.284424 593.732178,2181.141113 
	C596.406128,2179.446777 596.866211,2174.090332 598.102234,2170.330811 
	C600.451843,2163.184082 602.631165,2155.981689 605.971802,2148.875977 
	C616.542664,2176.208008 614.090027,2205.692139 622.447998,2233.649170 
	C623.438110,2231.750488 624.425781,2229.850342 625.419006,2227.952881 
	C627.573669,2223.836670 629.416016,2219.516113 631.943359,2215.642822 
	C641.454651,2201.065186 652.207764,2199.252197 666.300415,2209.812988 
	C671.083618,2213.397461 675.445496,2217.539307 680.152771,2221.231689 
	C684.599854,2224.719971 689.000793,2228.374512 693.855713,2231.215088 
	C706.322571,2238.509033 716.492981,2235.857422 724.512451,2223.710693 
	C725.062256,2222.877930 725.546570,2222.001221 726.109253,2221.177490 
	C733.272888,2210.690430 738.812317,2209.743896 749.237976,2217.416504 
	C751.906982,2219.380615 754.232422,2221.804688 756.800171,2223.915039 
	C760.900574,2227.284668 764.819031,2230.964600 769.268127,2233.802246 
	C777.434937,2239.011230 783.382568,2237.315430 788.426758,2229.054688 
	C791.300171,2224.348877 792.519592,2218.351562 798.971985,2215.714600 
	C804.617371,2221.453369 805.836426,2228.816895 806.271790,2237.191406 
	C733.958191,2238.000000 661.916443,2238.000000 588.937317,2238.000000 
z"/>
<path fill="#516C74" opacity="1.000000" stroke="none" 
	d="
M542.937073,2238.000000 
	C543.322205,2233.260986 545.247437,2228.595459 545.834045,2223.767090 
	C546.871582,2215.227539 547.063110,2206.586426 547.668396,2197.992188 
	C548.148254,2191.178467 548.717346,2184.370605 549.262268,2177.362793 
	C552.875977,2177.893066 555.053833,2178.212646 557.992981,2178.643799 
	C562.268250,2166.620361 562.939270,2154.669189 560.350891,2142.455078 
	C560.080383,2141.178711 559.825012,2139.357910 558.943298,2138.836426 
	C550.615540,2133.908936 553.260620,2127.137695 555.716003,2120.469238 
	C557.050171,2116.845459 558.776306,2113.366455 560.678894,2109.014160 
	C566.942505,2116.260254 566.806030,2124.180176 567.699463,2131.521240 
	C570.664490,2155.884766 572.710754,2180.365479 575.978760,2204.684326 
	C577.426575,2215.458252 580.958313,2225.951904 583.772034,2237.286377 
	C570.624695,2238.000000 557.249451,2238.000000 542.937073,2238.000000 
z"/>
<path fill="#526A72" opacity="1.000000" stroke="none" 
	d="
M886.088623,2236.173340 
	C909.209595,2233.820068 932.318726,2231.341797 955.454895,2229.148193 
	C978.334167,2226.979004 1001.327393,2225.568604 1024.184326,2228.306152 
	C1039.292236,2230.115723 1054.160645,2233.925781 1069.568115,2237.419922 
	C1009.291565,2238.000000 948.583069,2238.000000 886.960266,2237.543457 
	C886.045898,2237.086670 886.088623,2236.173340 886.088623,2236.173340 
z"/>
<path fill="#82959A" opacity="1.000000" stroke="none" 
	d="
M2002.000000,1147.062744 
	C2002.000000,1148.000000 2001.110474,1147.946289 2000.671875,1148.025269 
	C2000.353394,1123.724976 2000.473267,1099.345703 2001.296631,1074.483154 
	C2002.000000,1098.041748 2002.000000,1122.083618 2002.000000,1147.062744 
z"/>
<path fill="#80959A" opacity="1.000000" stroke="none" 
	d="
M2000.167725,476.814575 
	C2000.280518,475.879303 2001.134644,476.018829 2001.567383,476.009399 
	C2002.000000,486.044189 2002.000000,496.088379 2002.000000,507.066284 
	C2001.339844,505.999725 2000.162354,504.012787 2000.110474,501.996796 
	C1999.902344,493.919373 2000.043213,485.832947 2000.167725,476.814575 
z"/>
<path fill="#879A9F" opacity="1.000000" stroke="none" 
	d="
M885.278687,2236.097656 
	C886.088623,2236.173340 886.045898,2237.086670 886.022949,2237.543457 
	C882.571289,2238.000000 879.142578,2238.000000 874.856934,2238.000000 
	C877.489563,2237.340576 880.979187,2236.681152 885.278687,2236.097656 
z"/>
<path fill="#CF5360" opacity="1.000000" stroke="none" 
	d="
M1325.209229,326.769165 
	C1385.605347,367.530426 1432.716064,419.077240 1464.200439,484.342743 
	C1482.909790,523.126526 1494.494995,563.998474 1498.124634,606.891418 
	C1499.750244,626.103455 1499.638550,645.466919 1500.131104,664.766418 
	C1500.223755,668.394897 1499.569580,672.063538 1499.049072,675.683289 
	C1494.538574,707.058105 1475.703125,724.854858 1445.431519,731.028381 
	C1420.586182,736.095276 1396.423218,733.880432 1373.542847,722.012451 
	C1355.854492,712.837402 1346.188721,698.287292 1343.711182,678.679626 
	C1338.724487,639.212891 1330.123291,600.664795 1314.980347,563.711853 
	C1280.253174,478.967865 1218.077881,425.229401 1130.481934,400.292206 
	C1101.565796,392.060242 1071.952148,387.873505 1041.963623,385.708710 
	C1013.631287,383.663483 985.357178,383.642212 957.094971,386.094849 
	C895.038818,391.480255 836.698730,407.799988 785.357422,444.739777 
	C741.216858,476.498749 710.892700,518.551331 691.946533,569.158813 
	C679.027893,603.666016 671.601074,639.407288 667.712036,676.002808 
	C664.713501,704.219482 663.952454,732.483643 663.960327,760.824219 
	C664.027527,1002.820251 664.023254,1244.816284 663.978455,1486.812256 
	C663.970032,1532.255981 667.494995,1577.310791 677.969604,1621.646973 
	C688.030273,1664.231201 704.024597,1704.244141 730.622742,1739.376343 
	C766.171875,1786.331543 813.020081,1817.343384 868.645508,1835.530518 
	C903.685913,1846.987183 939.785400,1852.658813 976.566589,1854.041504 
	C1019.326050,1855.649170 1061.822876,1853.642578 1103.692261,1843.947632 
	C1169.905396,1828.615723 1226.820190,1797.543701 1270.466431,1744.496704 
	C1299.614502,1709.070312 1317.097168,1667.905273 1328.100342,1623.751953 
	C1338.467529,1582.150269 1342.648071,1539.812988 1342.674683,1497.019775 
	C1342.733521,1402.688110 1342.738770,1308.356445 1342.731812,1214.024780 
	C1342.731567,1211.119019 1342.356323,1208.213135 1342.081909,1204.235474 
	C1337.552856,1204.235474 1333.640625,1204.235474 1329.728394,1204.235474 
	C1230.729980,1204.235474 1131.731689,1204.236572 1032.733276,1204.231323 
	C1028.067017,1204.231079 1023.397583,1204.271973 1018.734924,1204.124512 
	C1001.976501,1203.594482 988.622253,1196.492798 978.737183,1182.989868 
	C957.430115,1153.884888 957.679626,1118.093994 979.030823,1089.117676 
	C988.832092,1075.816040 1002.105835,1069.443970 1018.188049,1068.170288 
	C1021.502869,1067.907959 1024.851196,1068.039062 1028.184082,1068.038940 
	C1163.848511,1068.033691 1299.512939,1068.018555 1435.177368,1068.083862 
	C1441.479858,1068.086792 1447.903198,1068.168457 1454.063477,1069.319458 
	C1479.930420,1074.152100 1497.626587,1093.911011 1500.052734,1120.173584 
	C1500.420044,1124.149780 1500.519409,1128.162964 1500.518311,1132.159058 
	C1500.482544,1257.489990 1500.601562,1382.821533 1500.279175,1508.151733 
	C1500.127686,1567.013428 1493.354980,1625.167603 1477.785400,1682.043335 
	C1452.399292,1774.778687 1402.517212,1851.310913 1325.299194,1909.254150 
	C1285.669312,1938.992065 1240.917969,1958.575806 1193.854248,1973.139771 
	C1149.471069,1986.873901 1104.070801,1995.641357 1057.673340,1998.066772 
	C1028.418701,1999.596191 999.023315,2000.748169 969.777344,1999.688477 
	C889.062378,1996.764160 811.355103,1979.982544 738.247559,1944.720459 
	C669.959229,1911.782715 617.564697,1861.425415 577.852539,1797.254639 
	C546.527466,1746.636719 528.377563,1691.283691 517.966675,1633.079590 
	C509.910126,1588.038208 506.242218,1542.578247 506.224152,1496.875244 
	C506.122864,1240.879639 505.833466,984.883118 506.496124,728.889221 
	C506.679718,657.965820 515.714966,587.893494 540.185059,520.781433 
	C573.621704,429.077576 630.182739,355.696808 715.260925,306.082520 
	C758.161194,281.064728 804.711426,265.032196 853.013733,254.046143 
	C905.905762,242.016174 959.581665,237.278610 1013.724487,238.461426 
	C1090.149414,240.131058 1164.923096,251.163513 1236.364746,279.881561 
	C1267.378906,292.348633 1296.762817,307.895233 1325.209229,326.769165 
z"/>
</svg>